<?xml version="1.0" encoding="utf-8"?>
<!-- Generator: Adobe Illustrator 21.0.0, SVG Export Plug-In . SVG Version: 6.00 Build 0)  -->
<svg version="1.1" id="Laag_1" xmlns="http://www.w3.org/2000/svg" xmlns:xlink="http://www.w3.org/1999/xlink" x="0px" y="0px"
	 viewBox="0 0 800 600" style="enable-background:new 0 0 800 600;" xml:space="preserve">
<style type="text/css">
	.st0{fill:#BCC732;}
	.st1{clip-path:url(#SVGID_2_);fill:#BCC732;}
	.st2{display:none;}
</style>
<polygon class="st0" points="31.3,189.9 31.3,219 39.7,219 39.7,235.9 55.7,235.9 55.7,245.2 66,245.2 66,279 90.4,279 90.4,290.3 
	100.8,290.3 100.8,296.9 124.2,296.9 124.2,307.2 143,307.2 143,315.6 162.7,315.6 162.7,307.2 152.4,307.2 152.4,294 145.8,294 
	145.8,280.9 139.2,280.9 139.2,289.4 126.1,289.4 126.1,280.9 115.8,280.9 115.8,257.4 121.4,257.4 121.4,252.8 155.2,252.8 
	155.2,257.4 159.6,257.4 159.6,262.1 162.7,262.1 162.7,267.8 170.8,267.8 170.8,252.8 166.5,252.8 166.5,243.4 170.8,243.4 
	170.8,238.7 180.9,238.7 180.9,224.9 184.3,224.9 184.3,219 191.5,219 191.5,213.6 200.2,213.6 200.2,208 215.3,208 215.3,200.5 
	230.9,200.5 230.9,196.7 249.7,196.7 249.7,183.6 226.5,183.6 226.5,178 201.5,178 201.5,186.1 165.2,186.1 123.3,186.1 
	123.3,175.8 63.8,175.8 63.8,157 38.8,157 38.8,172.3 31.3,172.3 "/>
<polygon class="st0" points="188.2,311.9 214.6,311.9 214.6,304.2 226.5,304.2 226.5,296.9 233.4,296.9 233.4,321.3 258.4,321.3 
	258.4,340 283.5,340 283.5,354.1 298.5,354.1 298.5,360.7 307.9,360.7 307.9,371 298.5,371 298.5,380.7 301,380.7 301,387.9 
	294.1,387.9 294.1,393.9 301.6,393.9 301.6,416.1 275.3,416.1 275.3,426.4 266,426.4 266,439.5 255.9,439.5 255.9,448 247.8,448 
	247.8,458.9 234,458.9 234,466.8 224,466.8 224,472.7 215.3,472.7 215.3,483.3 210.3,483.3 210.3,489.3 199,489.3 199,479.9 
	187.7,479.9 187.7,456.4 195.2,456.4 195.2,445.2 200.9,445.2 200.9,420.8 212.1,420.8 212.1,395.4 191.5,395.4 191.5,379.5 
	175.8,379.5 175.8,363.8 169,363.8 169,354.1 164,354.1 164,346.9 175.8,346.9 175.8,340 179.6,340 179.6,315.6 184.3,315.6 
	188.4,315.6 "/>
<polygon class="st0" points="481.6,133.7 422.8,133.7 422.8,145 410.3,145 410.3,148.7 396.5,148.7 396.5,155.6 389,155.6 
	389,160.9 399,160.9 399,166.9 405.9,166.9 405.9,175.9 392.8,175.9 392.8,183.1 384.6,183.1 384.6,180 375.9,180 375.9,173.1 
	370.3,173.1 370.3,164.7 361.6,164.7 361.6,169 353.4,169 353.4,176.5 345.5,176.5 345.5,186.3 353.4,186.3 353.4,181.6 359,181.6 
	359,176.1 361.6,176.1 361.6,186.3 357.5,186.3 357.5,193 363.9,193 363.9,199 367.3,199 367.3,204.1 371.4,204.1 371.4,209.7 
	366.5,209.7 353.4,209.7 353.4,206 348.5,206 348.5,211 344,211 344,219.3 348.9,219.3 348.9,223.1 344,223.1 344,224.7 
	348.1,224.7 348.1,229.4 357.1,229.4 357.1,234.3 353.4,234.3 353.4,240.2 346.6,240.2 346.6,250.1 352.2,250.1 352.2,247.1 
	357.1,247.1 357.1,243 363.1,243 363.1,251.6 369.5,251.6 369.5,247.3 369.5,243.7 379.5,243.7 379.5,240.2 384.1,240.2 
	384.1,244.1 395.4,244.1 395.4,240.2 406.3,240.2 406.3,251.6 417.6,251.6 417.6,248.2 422.8,248.2 422.8,251.6 428.5,251.6 
	434.8,251.6 434.8,245.4 430.7,245.4 430.7,241.6 414.6,241.6 414.6,232.8 393.2,232.8 393.2,228.5 380.8,228.5 380.8,232.8 
	370.3,232.8 366.5,232.8 366.5,231.7 366.5,229.4 370.6,229.4 370.6,224.6 375.9,224.6 375.9,216.3 384.9,216.3 384.9,208.8 
	392.8,208.8 392.8,216.3 399.5,216.3 399.5,210.3 404.8,210.3 404.8,216.7 404.8,223.4 408.9,223.4 408.9,214.4 412.8,214.4 
	412.8,218.6 419.4,218.6 419.4,222.3 422.8,222.3 422.8,224.6 417.2,224.6 417.2,229.1 427.7,229.1 427.7,224.9 432.6,224.9 
	432.6,217.8 424.7,217.8 424.7,213.7 417.2,213.7 417.2,208.4 412.8,208.4 412.8,204.3 419.1,204.3 419.1,208 424.7,208 
	424.7,211.6 429.2,211.6 429.2,214.4 435.2,214.4 435.2,223.1 440.5,223.1 440.5,226.1 443.8,226.1 443.8,231.7 452.9,231.7 
	452.9,225.3 449.1,225.3 449.1,220.1 454,220.1 457.7,220.1 457.7,226.6 457.7,230.6 467.1,230.6 467.1,224.7 473.5,224.7 
	473.5,229.1 479.1,229.1 479.1,227.6 483.3,227.6 483.3,230.4 487,230.4 487,235.4 482.1,235.4 482.1,242.2 477.6,242.2 
	477.6,249.7 470.1,249.7 470.1,251.6 470.1,257.2 470.1,261 473.5,261 473.5,262.9 476.3,262.9 476.3,267.7 477.8,267.7 
	477.8,269.4 479.1,269.4 479.1,267.9 480.5,267.9 480.5,266 478.8,266 478.8,265.1 479.7,265.1 479.7,263 478.6,263 478.6,257 
	475.6,257 475.6,254.2 479.1,254.2 479.1,251.2 482.3,251.2 482.3,255 483.8,255 483.8,256.7 485.7,256.7 485.7,259.5 489.8,259.5 
	489.8,266 494.3,266 494.3,269.4 496.2,269.4 496.2,274.1 498.3,274.1 498.3,277.5 500.9,277.5 500.9,280.5 502.4,280.5 
	502.4,284.1 505,284.1 505,290.5 508.7,290.5 508.7,296.1 515,296.1 515,290.9 515,286.2 511.8,286.2 511.8,281.1 508.2,281.1 
	508.2,275.7 506.1,275.7 506.1,268.9 511.8,268.9 511.8,276.6 516.9,276.6 516.9,278.7 521.4,278.7 521.4,271.9 526.8,271.9 
	526.8,272.6 526.8,268.9 520,268.9 520,264.6 514.3,264.6 514.3,259.7 519.7,259.7 519.7,257.1 524.2,257.1 524.2,262.5 
	526.8,262.5 526.8,266.3 531,266.3 531,270.7 539.7,270.7 539.7,274.3 543.7,274.3 543.7,270 548.6,270 548.6,278.2 554.9,278.2 
	554.9,281.8 561,281.8 561,271.9 556.6,271.9 556.6,267.7 552.1,267.7 544.8,267.7 539.2,267.7 539.2,263.2 533.1,263.2 
	533.1,258.1 528.9,258.1 528.9,249.6 534.5,249.6 534.5,256.7 539.2,256.7 539.2,259.5 545.8,259.5 545.8,264.2 554.7,264.2 
	554.7,258.5 561,258.5 561,252.9 552.4,252.9 552.4,247.7 546.7,247.7 546.7,240.2 540.6,240.2 540.6,234.6 548.1,234.6 
	548.1,228.5 539.7,228.5 532.6,228.5 532.6,221 532.6,214.9 524.2,214.9 524.2,206.9 512,206.9 512,200.8 522.3,200.8 522.3,187.2 
	535.9,187.2 535.9,181.1 548.1,181.1 548.1,188.6 561,188.6 561,171.2 571.1,171.2 571.1,164.7 564.1,164.7 564.1,157.2 
	554.2,157.2 554.2,162.8 544.8,162.8 544.8,149.7 528.4,149.7 528.4,157.2 519.5,157.2 519.5,165.1 506.4,165.1 506.4,154.4 
	496.5,154.4 496.5,149.7 489.9,149.7 489.9,140.7 485.2,140.7 485.2,133.7 "/>
<polygon class="st0" points="588.5,245.9 588.5,253.8 582.4,253.8 582.4,259.5 578.2,259.5 578.2,264.2 583.3,264.2 583.3,269.3 
	578.2,269.3 578.2,272.6 584.7,272.6 584.7,281.1 590.4,281.1 590.4,290.9 597.9,290.9 597.9,298.9 603.5,298.9 603.5,306.4 
	603.5,308.8 607.7,308.8 607.7,317.7 613.5,317.7 613.5,325.2 616.6,325.2 616.6,313.7 621.8,313.7 621.8,303.6 627.9,303.6 
	627.9,297.5 636.8,297.5 636.8,288.6 645.7,288.6 645.7,281.1 654.2,281.1 654.2,272.1 644.3,272.1 644.3,265.1 637.3,265.1 
	637.3,259 631.7,259 631.7,264.6 625.1,264.6 625.1,257.1 618.1,257.1 618.1,249.2 609.1,249.2 609.1,239.3 592.2,239.3 
	592.2,245.9 "/>
<polygon class="st0" points="704.9,319.5 704.9,290.5 683.8,290.5 683.8,282.2 687.5,282.2 687.5,279.2 692.7,279.2 692.7,273.6 
	704.4,273.6 704.4,282.2 713.3,282.2 713.3,287.6 713.8,287.6 717.5,287.6 717.5,294.2 725.5,294.2 725.5,280.1 742,280.1 
	742,273.6 748.1,273.6 748.1,266 757,266 757,256.7 753.2,256.7 753.2,242.1 748.1,242.1 748.1,236.5 757,236.5 765.9,236.5 
	765.9,223.3 768.7,223.3 768.7,214 759.8,214 759.8,220.5 759.8,227.1 748.1,227.1 748.1,220.5 725.1,220.5 725.1,223.3 
	715.7,223.3 715.7,230.8 697.4,230.8 697.4,232.7 697.4,245.9 704.4,245.9 704.4,251 697.4,251 697.4,259.5 704.4,259.5 
	704.4,264.6 694.1,264.6 694.1,267.5 687.5,267.5 687.5,271.7 677.7,271.7 677.7,275.4 674.4,275.4 674.4,298.4 686.6,298.4 
	686.6,306.4 689.4,306.4 689.4,319.1 682.8,319.1 682.8,328.9 686.1,328.9 686.1,338.3 692.2,338.3 692.2,349.6 695,349.6 
	695,356.6 696.9,356.6 696.9,363.7 704.4,363.7 704.4,371.2 710.5,371.2 710.5,377.3 748.1,377.3 748.1,371.2 716.1,371.2 
	716.1,364.1 711.3,364.1 711.3,356.2 700.7,356.2 700.7,349.6 702.5,349.6 696.9,349.6 696.9,330.8 704.9,330.8 "/>
<g>
	<g>
		<defs>
			<rect id="SVGID_1_" width="800" height="600"/>
		</defs>
		<clipPath id="SVGID_2_">
			<use xlink:href="#SVGID_1_"  style="overflow:visible;"/>
		</clipPath>
		<path class="st1" d="M318.9,289.5"/>
	</g>
</g>
<polygon class="st0" points="321.4,293.7 321.4,315.3 332.7,315.3 332.7,330.3 344,330.3 344,339.7 364.6,339.7 364.6,329.7 
	382.1,329.7 382.1,346.6 408.4,346.6 408.4,361.3 400.9,361.3 400.9,366 412.2,366 412.2,390.4 420.3,390.4 420.3,403.6 
	424.1,403.6 424.1,415.8 427.8,415.8 427.8,426.1 434.1,426.1 434.1,438.6 439.1,438.6 439.1,450.5 439.1,466.8 457.5,466.8 
	468.5,466.8 468.5,452.4 476,452.4 476,449.9 482.9,449.9 482.9,438.6 471,438.6 471,431.7 464.7,431.7 464.7,422.3 468.5,422.3 
	468.5,416.7 477.9,416.7 477.9,428 486,428 486,419.5 504.8,419.5 504.8,404.8 498.5,404.8 498.5,380.2 509.8,380.2 509.8,372.6 
	497.3,372.6 497.3,356 477.9,356 477.9,364.1 466,364.1 466,382.3 463.5,382.3 463.5,348.5 447.2,348.5 447.2,337.9 473.5,337.9 
	473.5,330.3 496.7,330.3 516.7,330.3 516.7,315.3 533.6,315.3 533.6,312.8 488.5,312.8 488.5,304.5 488.5,285.3 464.7,285.3 
	464.7,267.1 452.9,267.1 452.9,260.9 439.1,260.9 439.1,267.8 439.1,275.9 402.8,275.9 402.8,260.9 379.5,260.9 379.5,270.3 
	362.1,270.3 357.1,270.3 357.1,267.1 331.5,267.1 331.5,275.3 321.6,275.3 "/>
<polygon class="st0" points="561.7,214 561.7,229 581.4,229 633.1,229 633.1,240.2 650.9,240.2 650.9,259.9 683.8,259.9 
	683.8,240.2 683.8,221.5 705.3,221.5 705.3,214 731.6,214 731.6,177.3 680,177.3 680,137 637.8,137 637.8,151.1 601.2,151.1 
	601.2,137 584.3,137 584.3,179.2 571.1,179.2 571.1,198.5 561.7,198.5 "/>
<g id="gTDWEJ_1_" class="st2">
	
		<image style="display:inline;overflow:visible;enable-background:new    ;" width="191" height="266" id="gTDWEJ" xlink:href="F32432BD.jpeg"  transform="matrix(0.2502 0 0 0.2506 285 164.25)">
	</image>
</g>
<polygon class="st0" points="330.8,198 331.9,198 331.9,198.5 332.9,198.5 332.9,198.9 332,198.9 332,199.3 332.3,199.3 
	332.3,199.6 333.1,199.6 333.1,199.9 333.9,199.9 333.9,200.7 333.6,200.7 333.6,201.1 333.3,201.1 333.3,201.6 332.9,201.6 
	332.9,201.9 332.6,201.9 332.6,202.2 333.3,202.2 333.3,202.4 332.8,202.4 332.8,203 333.3,203 333.3,203.7 333.7,203.7 
	333.7,204.7 334,204.7 334,205.7 334.2,205.7 334.2,206 334.6,206 334.6,206.5 335,206.5 335,207.5 334.5,207.5 334.5,207.6 
	335,207.6 335.3,207.6 335.3,208.6 335.1,208.6 335.1,208.8 335.4,208.8 335.4,209.1 334.7,209.1 334.7,209.7 335.8,209.7 
	335.8,209.9 336.4,209.9 336.4,211 335.8,211 335.8,211.6 336.6,211.6 336.6,212.6 335.9,212.6 335.9,213 335.4,213 335.4,213.4 
	330.9,213.4 330.9,213 330.1,213 330.1,213.6 329.1,213.6 329.1,213.2 328.4,213.2 328.4,213.4 327.8,213.4 327.8,213.7 
	327.4,213.7 327.4,213.2 327.4,212.8 328.2,212.8 328.2,212.2 329.3,212.2 329.3,211.1 328.4,211.1 328.4,210.1 329.4,210.1 
	329.4,209.5 330.2,209.5 330.2,208.7 328.7,208.7 328.7,208.1 329.7,208.1 329.7,207 330.6,207 330.6,206.1 331,206.1 331,205 
	331.5,205 331.5,204.6 330,204.6 330,204.4 330,203.8 330.9,203.8 330.9,203 330,203 329.1,203 329.1,202.3 329.6,202.3 
	329.6,201.6 329.9,201.6 329.9,200.4 330.2,200.4 330.2,199.7 330.5,199.7 330.5,198.3 330.8,198.3 "/>
<polygon class="st0" points="324.4,204.6 325.7,204.6 325.7,204.1 326.1,204.1 326.1,203.5 325.5,203.5 325.5,202.8 328.4,202.8 
	328.4,203.4 328,203.4 328,203.8 328.8,203.8 328.8,204.4 329.2,204.4 329.2,205.7 328.3,205.7 328.3,206.3 328,206.3 328,208.5 
	327.6,208.5 327.6,209.1 327.3,209.1 327.3,209.4 325.7,209.4 325.7,209.6 324.8,209.6 324.8,209.9 322.9,209.9 322.9,209.5 
	322.6,209.5 322.6,209.2 323,209.2 323,208.7 323.2,208.7 323.2,208.3 323.6,208.3 323.6,207.9 324.5,207.9 324.5,207.7 
	323.8,207.7 323.8,207.3 324,207.3 324,207 324.6,207 324.6,206.6 324.1,206.6 324.1,206.4 323.8,206.4 323.8,205.7 324.5,205.7 
	324.5,205.4 324.2,205.4 324.2,204.6 "/>
</svg>
